<svg width="40" height="40" viewBox="0 0 40 40" fill="none" xmlns="http://www.w3.org/2000/svg">
<g clip-path="url(#clip0_1_2323)">
<path d="M30.21 23.7819C27.4298 23.7819 25.168 26.0437 25.168 28.8239C25.168 31.6041 27.4298 33.8659 30.21 33.8659C32.9907 33.8659 35.252 31.6041 35.252 28.8239C35.252 26.0437 32.9902 23.7819 30.21 23.7819ZM30.21 31.3449C28.8197 31.3449 27.689 30.2142 27.689 28.8239C27.689 27.4336 28.8197 26.3029 30.21 26.3029C31.6003 26.3029 32.731 27.4336 32.731 28.8239C32.731 30.2143 31.6003 31.3449 30.21 31.3449Z" fill="#EF3E16"/>
<path d="M12.9834 23.7819C10.2032 23.7819 7.94141 26.0437 7.94141 28.8239C7.94141 31.6041 10.2032 33.8659 12.9834 33.8659C15.7637 33.8659 18.0255 31.6041 18.0255 28.8239C18.0255 26.0437 15.7637 23.7819 12.9834 23.7819ZM12.9834 31.3449C11.5931 31.3449 10.4624 30.2142 10.4624 28.8239C10.4624 27.4336 11.5931 26.3029 12.9834 26.3029C14.3734 26.3029 15.5045 27.4336 15.5045 28.8239C15.5045 30.2143 14.3737 31.3449 12.9834 31.3449Z" fill="#EF3E16"/>
<path d="M33.606 9.34954C33.3917 8.92391 32.956 8.6554 32.4795 8.6554H25.8408V11.1764H31.7021L35.1345 18.0033L37.3875 16.8705L33.606 9.34954Z" fill="#EF3E16"/>
<path d="M26.4284 27.6047H16.8906V30.1258H26.4284V27.6047Z" fill="#EF3E16"/>
<path d="M9.20242 27.6047H4.83273C4.13648 27.6047 3.57227 28.169 3.57227 28.8652C3.57227 29.5615 4.13656 30.1257 4.83273 30.1257H9.2025C9.89875 30.1257 10.463 29.5614 10.463 28.8652C10.463 28.169 9.89867 27.6047 9.20242 27.6047Z" fill="#EF3E16"/>
<path d="M39.7361 19.8991L37.2567 16.7058C37.0185 16.3982 36.6509 16.2184 36.2613 16.2184H27.1016V7.39487C27.1016 6.69862 26.5373 6.1344 25.8412 6.1344H4.83273C4.13648 6.1344 3.57227 6.6987 3.57227 7.39487C3.57227 8.09104 4.13656 8.65534 4.83273 8.65534H24.5806V17.4789C24.5806 18.1751 25.1449 18.7393 25.8411 18.7393H35.6441L37.4798 21.104V27.6049H33.9923C33.2961 27.6049 32.7319 28.1692 32.7319 28.8653C32.7319 29.5616 33.2962 30.1258 33.9923 30.1258H38.7402C39.4365 30.1258 40.0007 29.5615 40.0008 28.8653V20.6722C40.0008 20.3924 39.9075 20.1201 39.7361 19.8991Z" fill="#EF3E16"/>
<path d="M9.11742 21.2181H3.31906C2.62281 21.2181 2.05859 21.7824 2.05859 22.4786C2.05859 23.1749 2.62289 23.7391 3.31906 23.7391H9.11734C9.81359 23.7391 10.3778 23.1748 10.3778 22.4786C10.3779 21.7824 9.81359 21.2181 9.11742 21.2181Z" fill="#EF3E16"/>
<path d="M12.0168 16.2609H1.26047C0.564297 16.2609 0 16.8252 0 17.5214C0 18.2177 0.564297 18.7819 1.26047 18.7819H12.0168C12.713 18.7819 13.2773 18.2176 13.2773 17.5214C13.2773 16.8252 12.713 16.2609 12.0168 16.2609Z" fill="#EF3E16"/>
<path d="M14.0754 11.3026H3.31906C2.62281 11.3026 2.05859 11.8669 2.05859 12.5631C2.05859 13.2593 2.62289 13.8236 3.31906 13.8236H14.0754C14.7716 13.8236 15.3359 13.2593 15.3359 12.5631C15.3359 11.8669 14.7716 11.3026 14.0754 11.3026Z" fill="#EF3E16"/>
</g>
<defs>
<clipPath id="clip0_1_2323">
<rect width="40" height="40" fill="white"/>
</clipPath>
</defs>
</svg>
