<svg width="20" height="19" viewBox="0 0 20 19" fill="none" xmlns="http://www.w3.org/2000/svg">
<path d="M17.7402 0H3.19336C1.96556 0 0.966797 0.998764 0.966797 2.22656V16.7734C0.966797 18.0012 1.96556 19 3.19336 19H17.7402C18.968 19 19.9668 18.0012 19.9668 16.7734V2.22656C19.9668 0.998764 18.968 0 17.7402 0ZM18.4824 16.7734C18.4824 17.1827 18.1495 17.5156 17.7402 17.5156H13.3613V12.0977H15.7373L16.0142 9.79688H13.3613V7.31055C13.3613 6.67592 13.84 6.19727 14.4746 6.19727H16.1445V4.04492C15.705 3.98288 14.8572 3.89648 14.4746 3.89648C13.6091 3.89648 12.7415 4.26163 12.0944 4.89815C11.4277 5.55394 11.0605 6.41296 11.0605 7.31707V9.79688H8.64844V12.0977H11.0605V17.5156H3.19336C2.78414 17.5156 2.45117 17.1827 2.45117 16.7734V2.22656C2.45117 1.81734 2.78414 1.48438 3.19336 1.48438H17.7402C18.1495 1.48438 18.4824 1.81734 18.4824 2.22656V16.7734Z" fill="white"/>
</svg>
