<svg width="20" height="19" viewBox="0 0 20 19" fill="none" xmlns="http://www.w3.org/2000/svg">
<path d="M17.7402 0.000183105H3.19336C1.96556 0.000183105 0.966797 0.998947 0.966797 2.22675V16.7736C0.966797 18.0014 1.96556 19.0002 3.19336 19.0002H17.7402C18.968 19.0002 19.9668 18.0014 19.9668 16.7736V2.22675C19.9668 0.998947 18.968 0.000183105 17.7402 0.000183105ZM18.4824 16.7736C18.4824 17.1828 18.1495 17.5158 17.7402 17.5158H13.3613V12.0978H15.7373L16.0142 9.79706H13.3613V7.31073C13.3613 6.6761 13.84 6.19745 14.4746 6.19745H16.1445V4.0451C15.705 3.98306 14.8572 3.89667 14.4746 3.89667C13.6091 3.89667 12.7415 4.26182 12.0944 4.89833C11.4277 5.55412 11.0605 6.41315 11.0605 7.31725V9.79706H8.64844V12.0978H11.0605V17.5158H3.19336C2.78414 17.5158 2.45117 17.1828 2.45117 16.7736V2.22675C2.45117 1.81753 2.78414 1.48456 3.19336 1.48456H17.7402C18.1495 1.48456 18.4824 1.81753 18.4824 2.22675V16.7736Z" fill="white"/>
</svg>
