<svg width="19" height="19" viewBox="0 0 19 19" fill="none" xmlns="http://www.w3.org/2000/svg">
<path d="M18.948 5.58605C18.9035 4.57651 18.7403 3.88246 18.5064 3.28105C18.2651 2.64267 17.894 2.07114 17.4077 1.59601C16.9326 1.1135 16.3573 0.738563 15.7263 0.501074C15.1214 0.267211 14.431 0.103956 13.4214 0.0594446C12.4043 0.011164 12.0814 0 9.50185 0C6.92224 0 6.59936 0.011164 5.58605 0.0556749C4.5765 0.100186 3.88245 0.263586 3.28119 0.497305C2.64267 0.738563 2.07113 1.10973 1.59601 1.59601C1.1135 2.07114 0.738707 2.64644 0.501074 3.27743C0.26721 3.88246 0.103955 4.57274 0.0594445 5.58228C0.011164 6.59936 0 6.92225 0 9.50186C0 12.0815 0.011164 12.4043 0.0556749 13.4177C0.100186 14.4272 0.263586 15.1213 0.497449 15.7227C0.738707 16.361 1.1135 16.9326 1.59601 17.4077C2.07113 17.8902 2.64644 18.2651 3.27742 18.5026C3.88245 18.7365 4.57273 18.8998 5.58242 18.9443C6.59559 18.9889 6.91862 18.9999 9.49822 18.9999C12.0778 18.9999 12.4007 18.9889 13.414 18.9443C14.4236 18.8998 15.1176 18.7365 15.7189 18.5026C16.9958 18.009 18.0053 16.9994 18.499 15.7227C18.7327 15.1176 18.8961 14.4272 18.9406 13.4177C18.9851 12.4043 18.9963 12.0815 18.9963 9.50186C18.9963 6.92225 18.9925 6.59936 18.948 5.58605ZM17.237 13.3434C17.1961 14.2713 17.0403 14.7724 16.9104 15.1065C16.5911 15.9342 15.9342 16.5911 15.1065 16.9104C14.7724 17.0403 14.2677 17.1962 13.3434 17.2369C12.3413 17.2816 12.0407 17.2926 9.50562 17.2926C6.97052 17.2926 6.6662 17.2816 5.66767 17.2369C4.73976 17.1962 4.23869 17.0403 3.90464 16.9104C3.49273 16.7582 3.11779 16.5169 2.81347 16.2014C2.49798 15.8933 2.25672 15.5221 2.10448 15.1102C1.97457 14.7762 1.81871 14.2713 1.77797 13.3472C1.73332 12.345 1.7223 12.0443 1.7223 9.50925C1.7223 6.97416 1.73332 6.66983 1.77797 5.67145C1.81871 4.74353 1.97457 4.24246 2.10448 3.90841C2.25672 3.49636 2.49798 3.12157 2.81724 2.81709C3.12519 2.5016 3.49635 2.26034 3.90841 2.10825C4.24246 1.97835 4.7473 1.82248 5.67144 1.7816C6.67359 1.73709 6.97429 1.72592 9.50924 1.72592C12.0481 1.72592 12.3487 1.73709 13.3472 1.7816C14.2751 1.82248 14.7762 1.97835 15.1102 2.10825C15.5221 2.26034 15.8971 2.5016 16.2014 2.81709C16.5169 3.12519 16.7581 3.49636 16.9104 3.90841C17.0403 4.24246 17.1961 4.74716 17.237 5.67145C17.2815 6.6736 17.2927 6.97416 17.2927 9.50925C17.2927 12.0443 17.2815 12.3413 17.237 13.3434Z" fill="white"/>
<path d="M9.50192 4.62109C6.80735 4.62109 4.62109 6.8072 4.62109 9.50193C4.62109 12.1967 6.80735 14.3828 9.50192 14.3828C12.1966 14.3828 14.3828 12.1967 14.3828 9.50193C14.3828 6.8072 12.1966 4.62109 9.50192 4.62109ZM9.50192 12.668C7.75382 12.668 6.33585 11.2502 6.33585 9.50193C6.33585 7.75368 7.75382 6.33585 9.50192 6.33585C11.2502 6.33585 12.668 7.75368 12.668 9.50193C12.668 11.2502 11.2502 12.668 9.50192 12.668Z" fill="white"/>
</svg>
