<svg width="19" height="19" viewBox="0 0 19 19" fill="none" xmlns="http://www.w3.org/2000/svg">
<path d="M9.50192 4.62134C6.80735 4.62134 4.62109 6.80745 4.62109 9.50217C4.62109 12.1969 6.80735 14.383 9.50192 14.383C12.1966 14.383 14.3828 12.1969 14.3828 9.50217C14.3828 6.80745 12.1966 4.62134 9.50192 4.62134ZM9.50192 12.6683C7.75382 12.6683 6.33585 11.2504 6.33585 9.50217C6.33585 7.75392 7.75382 6.3361 9.50192 6.3361C11.2502 6.3361 12.668 7.75392 12.668 9.50217C12.668 11.2504 11.2502 12.6683 9.50192 12.6683Z" fill="white"/>
<path d="M18.948 5.5863C18.9035 4.57675 18.7403 3.8827 18.5064 3.2813C18.2651 2.64292 17.894 2.07138 17.4077 1.59626C16.9326 1.11374 16.3573 0.738807 15.7263 0.501319C15.1214 0.267455 14.431 0.1042 13.4214 0.0596887C12.4043 0.0114081 12.0814 0.000244141 9.50185 0.000244141C6.92224 0.000244141 6.59936 0.0114081 5.58605 0.0559191C4.5765 0.10043 3.88245 0.26383 3.28119 0.497549C2.64267 0.738807 2.07113 1.10997 1.59601 1.59626C1.1135 2.07138 0.738707 2.64669 0.501074 3.27767C0.26721 3.8827 0.103955 4.57298 0.0594445 5.58253C0.011164 6.59961 0 6.92249 0 9.5021C0 12.0817 0.011164 12.4046 0.0556749 13.4179C0.100186 14.4274 0.263586 15.1215 0.497449 15.7229C0.738707 16.3613 1.1135 16.9328 1.59601 17.4079C2.07113 17.8905 2.64644 18.2654 3.27742 18.5029C3.88245 18.7367 4.57273 18.9 5.58242 18.9445C6.59559 18.9892 6.91862 19.0002 9.49822 19.0002C12.0778 19.0002 12.4007 18.9892 13.414 18.9445C14.4236 18.9 15.1176 18.7367 15.7189 18.5029C16.9958 18.0092 18.0053 16.9997 18.499 15.7229C18.7327 15.1179 18.8961 14.4274 18.9406 13.4179C18.9851 12.4046 18.9963 12.0817 18.9963 9.5021C18.9963 6.92249 18.9925 6.59961 18.948 5.5863ZM17.237 13.3437C17.1961 14.2716 17.0403 14.7727 16.9104 15.1067C16.5911 15.9344 15.9342 16.5914 15.1065 16.9106C14.7724 17.0405 14.2677 17.1964 13.3434 17.2371C12.3413 17.2818 12.0407 17.2928 9.50562 17.2928C6.97052 17.2928 6.6662 17.2818 5.66767 17.2371C4.73976 17.1964 4.23869 17.0405 3.90464 16.9106C3.49273 16.7584 3.11779 16.5171 2.81347 16.2017C2.49798 15.8936 2.25672 15.5224 2.10448 15.1105C1.97457 14.7764 1.81871 14.2716 1.77797 13.3474C1.73332 12.3453 1.7223 12.0446 1.7223 9.50949C1.7223 6.9744 1.73332 6.67007 1.77797 5.67169C1.81871 4.74378 1.97457 4.2427 2.10448 3.90865C2.25672 3.4966 2.49798 3.12181 2.81724 2.81734C3.12519 2.50185 3.49635 2.26059 3.90841 2.1085C4.24245 1.97859 4.7473 1.82273 5.67144 1.78184C6.67359 1.73733 6.97429 1.72617 9.50924 1.72617C12.0481 1.72617 12.3487 1.73733 13.3472 1.78184C14.2751 1.82273 14.7762 1.97859 15.1102 2.1085C15.5221 2.26059 15.8971 2.50185 16.2014 2.81734C16.5169 3.12543 16.7581 3.4966 16.9104 3.90865C17.0403 4.2427 17.1961 4.7474 17.237 5.67169C17.2815 6.67384 17.2927 6.9744 17.2927 9.50949C17.2927 12.0446 17.2815 12.3415 17.237 13.3437Z" fill="white"/>
</svg>
