<svg width="20" height="20" viewBox="0 0 20 20" fill="none" xmlns="http://www.w3.org/2000/svg">
<g clip-path="url(#clip0_1530_2062)">
<path d="M0.599454 8.78711C0.272696 8.78711 0.0078125 9.05203 0.0078125 9.37875V18.0685C0.0078125 18.3953 0.272735 18.6602 0.599454 18.6602H4.16403V8.78711H0.599454Z" fill="#676767"/>
<path d="M19.993 12.0542C19.993 11.3032 19.5894 10.6446 18.9878 10.2839C19.2183 9.95101 19.3535 9.54722 19.3535 9.11257C19.3535 7.97534 18.4282 7.0501 17.291 7.0501H12.9372C13.0706 6.44541 13.2531 5.53803 13.3802 4.58814C13.7109 2.11622 13.4849 0.745317 12.669 0.273871C12.1603 -0.0199973 11.6119 -0.0796069 11.1247 0.105862C10.7483 0.249222 10.24 0.601684 9.95037 1.46673L8.80607 4.46287C8.22595 5.89557 6.44942 7.39967 5.34766 8.23136V18.9219C7.38962 19.6374 9.5204 20.0001 11.6942 20.0001H16.4382C17.5755 20.0001 18.5007 19.0748 18.5007 17.9376C18.5007 17.5394 18.3872 17.1671 18.1909 16.8515C18.8785 16.5167 19.3534 15.8106 19.3534 14.9959C19.3534 14.5612 19.2182 14.1575 18.9877 13.8246C19.5894 13.4639 19.993 12.8053 19.993 12.0542Z" fill="#676767"/>
</g>
<defs>
<clipPath id="clip0_1530_2062">
<rect width="20" height="20" fill="white"/>
</clipPath>
</defs>
</svg>
