<svg xmlns="http://www.w3.org/2000/svg" xmlns:xlink="http://www.w3.org/1999/xlink" width="28" height="28" viewBox="0 0 27 25"><defs><path id="fgu1a" d="M1068 2833h5v-17h-5zm5-22c-.04-1.7-1.16-3-2.98-3a2.89 2.89 0 0 0-3.02 3c0 1.68 1.16 3 2.95 3h.04a2.88 2.88 0 0 0 3.01-3zm21 12.64c0-5.22-2.96-7.64-6.74-7.64-3.04 0-4.94 1.65-5.3 2.8v-2.64H1076c.08 1.4 0 16.84 0 16.84h5.96v-9.11c0-.5-.02-1.01.13-1.38.41-1.01 1.3-2.06 2.88-2.06 2.07 0 3.01 1.56 3.01 3.84v8.71h6.02z"/></defs><g><g transform="translate(-1067 -2808)"><use fill="#fff" xlink:href="#fgu1a"/></g></g></svg>
