<svg width="40" height="40" viewBox="0 0 40 40" fill="none" xmlns="http://www.w3.org/2000/svg">
<g clip-path="url(#clip0_1_2052)">
<path d="M37.1369 7.12414V4.78039H21.1722V0H7.48229V4.78039H2.86377V7.12414H5.20275V15.7105H2.86377V18.0542H5.20275V26.7261H2.86377V29.0698H5.20275V37.6562H2.86377V40H37.1369V37.6562H34.7979V29.0699H37.1369V26.7262H34.7979V18.0543H37.1369V15.7105H34.7979V7.12414H37.1369ZM9.82604 2.34375H18.8285V4.78039H9.82611V2.34375H9.82604ZM7.5465 18.0543H15.3363C13.7001 20.3797 12.872 22.4848 12.872 24.324C12.872 25.1665 13.0189 25.9753 13.2886 26.7262H7.5465V18.0543ZM20.0003 29.1072C17.3621 29.1072 15.2157 26.9615 15.2157 24.324C15.2157 21.5754 18.1821 17.9801 20.001 16.1298C21.8202 17.9777 24.7849 21.5687 24.7849 24.324C24.7849 26.9615 22.6385 29.1072 20.0003 29.1072ZM32.4542 37.6562H7.5465V29.0699H14.6867C15.9929 30.5303 17.8911 31.451 20.0003 31.451C22.1094 31.451 24.0076 30.5304 25.3138 29.0699H32.4541V37.6562H32.4542ZM32.4542 26.7262H26.7121C26.9817 25.9753 27.1287 25.1665 27.1287 24.324C27.1287 22.4847 26.3005 20.3797 24.6644 18.0543H32.4542V26.7262ZM32.4542 15.7105H22.8038C21.7146 14.4761 20.8349 13.6762 20.7867 13.6325L20.0003 12.9208L19.214 13.6325C19.1657 13.6762 18.286 14.4762 17.1968 15.7105H7.5465V7.12414H32.4541V15.7105H32.4542Z" fill="#EF3E16"/>
</g>
<defs>
<clipPath id="clip0_1_2052">
<rect width="40" height="40" fill="white"/>
</clipPath>
</defs>
</svg>
