<svg width="20" height="19" viewBox="0 0 20 19" fill="none" xmlns="http://www.w3.org/2000/svg">
<path d="M19.9148 5.5863C19.8703 4.57675 19.7071 3.8827 19.4732 3.2813C19.2319 2.64292 18.8608 2.07138 18.3745 1.59626C17.8994 1.11374 17.324 0.738807 16.6931 0.501319C16.0882 0.267455 15.3978 0.1042 14.3882 0.0596887C13.3711 0.0114081 13.0482 0.000244141 10.4686 0.000244141C7.88904 0.000244141 7.56616 0.0114081 6.55284 0.0559191C5.5433 0.10043 4.84925 0.26383 4.24799 0.497549C3.60947 0.738807 3.03793 1.10997 2.56281 1.59626C2.08029 2.07138 1.7055 2.64669 1.46787 3.27767C1.23401 3.8827 1.07075 4.57298 1.02624 5.58253C0.977961 6.59961 0.966797 6.92249 0.966797 9.5021C0.966797 12.0817 0.977961 12.4046 1.02247 13.4179C1.06698 14.4274 1.23038 15.1215 1.46425 15.7229C1.7055 16.3613 2.08029 16.9328 2.56281 17.4079C3.03793 17.8905 3.61324 18.2654 4.24422 18.5029C4.84925 18.7367 5.53953 18.9 6.54922 18.9445C7.56239 18.9892 7.88542 19.0002 10.465 19.0002C13.0446 19.0002 13.3675 18.9892 14.3808 18.9445C15.3904 18.9 16.0844 18.7367 16.6857 18.5029C17.9626 18.0092 18.9721 16.9997 19.4658 15.7229C19.6995 15.1179 19.8629 14.4274 19.9074 13.4179C19.9519 12.4046 19.9631 12.0817 19.9631 9.5021C19.9631 6.92249 19.9593 6.59961 19.9148 5.5863ZM18.2038 13.3437C18.1629 14.2716 18.0071 14.7727 17.8772 15.1067C17.5579 15.9344 16.901 16.5914 16.0732 16.9106C15.7392 17.0405 15.2345 17.1964 14.3102 17.2371C13.3081 17.2818 13.0075 17.2928 10.4724 17.2928C7.93732 17.2928 7.63299 17.2818 6.63447 17.2371C5.70656 17.1964 5.20548 17.0405 4.87143 16.9106C4.45953 16.7584 4.08459 16.5171 3.78026 16.2017C3.46477 15.8936 3.22351 15.5224 3.07128 15.1105C2.94137 14.7764 2.78551 14.2716 2.74477 13.3474C2.70011 12.3453 2.68909 12.0446 2.68909 9.50949C2.68909 6.9744 2.70011 6.67007 2.74477 5.67169C2.78551 4.74378 2.94137 4.2427 3.07128 3.90865C3.22351 3.4966 3.46477 3.12181 3.78403 2.81734C4.09198 2.50185 4.46315 2.26059 4.8752 2.1085C5.20925 1.97859 5.7141 1.82273 6.63824 1.78184C7.64039 1.73733 7.94109 1.72617 10.476 1.72617C13.0149 1.72617 13.3155 1.73733 14.314 1.78184C15.2419 1.82273 15.743 1.97859 16.077 2.1085C16.4889 2.26059 16.8639 2.50185 17.1682 2.81734C17.4837 3.12543 17.7249 3.4966 17.8772 3.90865C18.0071 4.2427 18.1629 4.7474 18.2038 5.67169C18.2483 6.67384 18.2595 6.9744 18.2595 9.50949C18.2595 12.0446 18.2483 12.3415 18.2038 13.3437Z" fill="white"/>
<path d="M10.7382 3.88696C7.57256 3.88696 5.97656 6.08361 5.97656 7.91496C5.97656 9.02432 6.4105 10.0105 7.34027 10.3788C7.3795 10.3942 7.41811 10.4021 7.45427 10.4021C7.55847 10.4021 7.64243 10.3384 7.6743 10.217C7.70556 10.1043 7.77788 9.81925 7.81098 9.69912C7.85511 9.53732 7.83856 9.48154 7.71537 9.34058C7.44692 9.03412 7.27469 8.63758 7.27469 8.07677C7.27469 6.44645 8.53605 4.98835 10.5562 4.98835C12.3452 4.98835 13.3283 6.04622 13.3283 7.45896C13.3283 9.3179 12.4782 10.8875 11.2163 10.8875C10.5182 10.8875 9.99721 10.3292 10.1645 9.64519C10.3649 8.82819 10.7535 7.94683 10.7535 7.35783C10.7535 6.82951 10.4599 6.39006 9.8544 6.39006C9.14098 6.39006 8.56853 7.10287 8.56853 8.05899C8.56853 8.66699 8.78121 9.07948 8.78121 9.07948C8.78121 9.07948 8.05308 12.0692 7.92498 12.5933C7.67001 13.6358 7.88637 14.9143 7.90476 15.043C7.91088 15.089 7.95011 15.1141 7.99056 15.1141C8.01753 15.1141 8.04511 15.1031 8.06288 15.0798C8.12908 14.9977 8.97734 13.9833 9.26601 12.9696C9.34876 12.6827 9.73488 11.1977 9.73488 11.1977C9.96656 11.6249 10.6432 12.0006 11.3634 12.0006C13.5049 12.0006 14.958 10.1122 14.958 7.58277C14.9574 5.66867 13.2836 3.88696 10.7382 3.88696Z" fill="white"/>
</svg>
