<svg width="24" height="19" viewBox="0 0 24 19" fill="none" xmlns="http://www.w3.org/2000/svg">
<path d="M14.7372 3.88672C11.5716 3.88672 9.97559 6.08336 9.97559 7.91472C9.97559 9.02407 10.4095 10.0102 11.3393 10.3786C11.3785 10.3939 11.4171 10.4019 11.4533 10.4019C11.5575 10.4019 11.6415 10.3381 11.6733 10.2168C11.7046 10.104 11.7769 9.81901 11.81 9.69888C11.8541 9.53707 11.8376 9.4813 11.7144 9.34033C11.4459 9.03388 11.2737 8.63733 11.2737 8.07653C11.2737 6.4462 12.5351 4.98811 14.5552 4.98811C16.3443 4.98811 17.3274 6.04598 17.3274 7.45872C17.3274 9.31765 16.4773 10.8873 15.2153 10.8873C14.5172 10.8873 13.9962 10.3289 14.1636 9.64494C14.364 8.82794 14.7526 7.94659 14.7526 7.35759C14.7526 6.82927 14.459 6.38982 13.8534 6.38982C13.14 6.38982 12.5676 7.10262 12.5676 8.05875C12.5676 8.66675 12.7802 9.07923 12.7802 9.07923C12.7802 9.07923 12.0521 12.069 11.924 12.593C11.669 13.6356 11.8854 14.9141 11.9038 15.0428C11.9099 15.0887 11.9491 15.1139 11.9896 15.1139C12.0166 15.1139 12.0441 15.1028 12.0619 15.0796C12.1281 14.9974 12.9764 13.9831 13.265 12.9693C13.3478 12.6825 13.7339 11.1974 13.7339 11.1974C13.9656 11.6246 14.6422 12.0003 15.3624 12.0003C17.5039 12.0003 18.9571 10.112 18.9571 7.58252C18.9565 5.66843 17.2826 3.88672 14.7372 3.88672Z" fill="white"/>
<path d="M2.71558 4.42852C2.71558 5.05776 2.20537 5.56797 1.57598 5.56797C0.946734 5.56797 0.436523 5.05776 0.436523 4.42852C0.436523 3.79913 0.946734 3.28906 1.57598 3.28906C2.20537 3.28906 2.71558 3.79913 2.71558 4.42852Z" fill="white"/>
<path d="M23.9148 5.58605C23.8703 4.57651 23.7071 3.88246 23.4732 3.28105C23.2319 2.64267 22.8608 2.07114 22.3745 1.59601C21.8994 1.1135 21.324 0.738563 20.6931 0.501074C20.0882 0.267211 19.3978 0.103956 18.3882 0.0594446C17.3711 0.011164 17.0482 0 14.4686 0C11.889 0 11.5662 0.011164 10.5528 0.0556749C9.5433 0.100186 8.84925 0.263586 8.24799 0.497305C7.60947 0.738563 7.03793 1.10973 6.56281 1.59601C6.08029 2.07114 5.7055 2.64644 5.46787 3.27743C5.23401 3.88246 5.07075 4.57274 5.02624 5.58228C4.97796 6.59936 4.9668 6.92225 4.9668 9.50186C4.9668 12.0815 4.97796 12.4043 5.02247 13.4177C5.06698 14.4272 5.23038 15.1213 5.46425 15.7227C5.7055 16.361 6.08029 16.9326 6.56281 17.4077C7.03793 17.8902 7.61324 18.2651 8.24422 18.5026C8.84925 18.7365 9.53953 18.8998 10.5492 18.9443C11.5624 18.9889 11.8854 18.9999 14.465 18.9999C17.0446 18.9999 17.3675 18.9889 18.3808 18.9443C19.3904 18.8998 20.0844 18.7365 20.6857 18.5026C21.9626 18.009 22.9721 16.9994 23.4658 15.7227C23.6995 15.1176 23.8629 14.4272 23.9074 13.4177C23.9519 12.4043 23.9631 12.0815 23.9631 9.50186C23.9631 6.92225 23.9593 6.59936 23.9148 5.58605ZM22.2038 13.3434C22.1629 14.2713 22.0071 14.7724 21.8772 15.1065C21.5579 15.9342 20.901 16.5911 20.0732 16.9104C19.7392 17.0403 19.2345 17.1962 18.3102 17.2369C17.3081 17.2816 17.0075 17.2926 14.4724 17.2926C11.9373 17.2926 11.633 17.2816 10.6345 17.2369C9.70656 17.1962 9.20548 17.0403 8.87143 16.9104C8.45953 16.7582 8.08459 16.5169 7.78026 16.2014C7.46477 15.8933 7.22351 15.5221 7.07128 15.1102C6.94137 14.7762 6.78551 14.2713 6.74477 13.3472C6.70011 12.345 6.68909 12.0443 6.68909 9.50925C6.68909 6.97416 6.70011 6.66983 6.74477 5.67145C6.78551 4.74353 6.94137 4.24246 7.07128 3.90841C7.22351 3.49636 7.46477 3.12157 7.78403 2.81709C8.09198 2.5016 8.46315 2.26034 8.8752 2.10825C9.20925 1.97835 9.7141 1.82248 10.6382 1.7816C11.6404 1.73709 11.9411 1.72592 14.476 1.72592C17.0149 1.72592 17.3155 1.73709 18.314 1.7816C19.2419 1.82248 19.743 1.97835 20.077 2.10825C20.4889 2.26034 20.8639 2.5016 21.1682 2.81709C21.4837 3.12519 21.7249 3.49636 21.8772 3.90841C22.0071 4.24246 22.1629 4.74716 22.2038 5.67145C22.2483 6.6736 22.2595 6.97416 22.2595 9.50925C22.2595 12.0443 22.2483 12.3413 22.2038 13.3434Z" fill="white"/>
</svg>
