<svg width="40" height="40" viewBox="0 0 40 40" fill="none" xmlns="http://www.w3.org/2000/svg">
<path d="M13.3532 13.8881C13.5836 14.1945 13.9352 14.356 14.291 14.356C14.5364 14.356 14.7839 14.279 14.9948 14.1204C15.5123 13.7313 15.6164 12.9961 15.2273 12.4788C14.4528 11.4485 14.0261 10.1717 14.0261 8.88293C14.0261 7.50445 14.5074 6.15771 15.3811 5.09143C15.7913 4.59063 15.718 3.8518 15.2172 3.44134C14.7164 3.03118 13.9776 3.10443 13.5671 3.60522C12.351 5.08959 11.6812 6.96398 11.6812 8.88293C11.6812 10.6771 12.275 12.4544 13.3532 13.8881Z" fill="#EF3E16"/>
<path d="M10.8496 17.5021C11.1096 17.5021 11.3712 17.416 11.5884 17.2394C12.0911 16.831 12.1671 16.0925 11.7587 15.5902C10.2222 13.7002 9.37623 11.318 9.37623 8.88242C9.37623 6.3342 10.2927 3.86808 11.9571 1.93815C12.3798 1.44803 12.3251 0.707677 11.8347 0.284704C11.3446 -0.137965 10.6043 -0.0833382 10.1813 0.406774C8.15003 2.76212 7.03125 5.77237 7.03125 8.88273C7.03125 11.8551 8.06397 14.7625 9.93928 17.0694C10.1709 17.3544 10.5087 17.5021 10.8496 17.5021Z" fill="#EF3E16"/>
<path d="M25.9953 8.88293C25.9953 10.1717 25.5689 11.4488 24.7941 12.4788C24.405 12.9964 24.5091 13.7313 25.0266 14.1204C25.2375 14.279 25.485 14.356 25.7304 14.356C26.0862 14.356 26.4378 14.1945 26.6682 13.8881C27.7464 12.4544 28.3403 10.6768 28.3403 8.88293C28.3403 6.96398 27.6707 5.08959 26.4543 3.60522C26.0438 3.10443 25.3053 3.03118 24.8042 3.44134C24.3037 3.8518 24.2301 4.59033 24.6406 5.09112C25.5143 6.15802 25.9953 7.50445 25.9953 8.88293Z" fill="#EF3E16"/>
<path d="M30.6461 8.88289C30.6461 11.3185 29.8001 13.7007 28.2636 15.5907C27.855 16.093 27.9312 16.8315 28.4339 17.2398C28.6512 17.4165 28.9127 17.5026 29.1727 17.5026C29.5133 17.5026 29.8514 17.3546 30.083 17.0695C31.9584 14.763 32.9911 11.8556 32.9911 8.88289C32.9911 5.77254 31.8723 2.76259 29.841 0.407245C29.4181 -0.0831725 28.6777 -0.137799 28.1873 0.285175C27.6972 0.707843 27.6426 1.4482 28.0652 1.93862C29.7297 3.86855 30.6461 6.33467 30.6461 8.88289Z" fill="#EF3E16"/>
<path d="M31.0331 37.655H27.7418L21.7509 12.1198C22.902 11.4978 23.686 10.2799 23.686 8.88219C23.686 6.85491 22.0365 5.20544 20.0092 5.20544C17.982 5.20544 16.3325 6.85491 16.3325 8.88219C16.3325 10.2802 17.1165 11.4978 18.2676 12.1198L12.2767 37.655H8.99182C8.34424 37.655 7.81934 38.1799 7.81934 38.8275C7.81934 39.4748 8.34424 39.9997 8.99182 39.9997H31.0331C31.6807 39.9997 32.2056 39.4748 32.2056 38.8275C32.2056 38.1799 31.6807 37.655 31.0331 37.655ZM23.1205 28.2239L18.6372 25.5508L22.0274 23.5645L23.1205 28.2239ZM20.0092 7.55041C20.7438 7.55041 21.3413 8.14794 21.3413 8.88219C21.3413 9.61675 20.7438 10.2143 20.0092 10.2143C19.275 10.2143 18.6775 9.61675 18.6775 8.88219C18.6775 8.14794 19.275 7.55041 20.0092 7.55041ZM20.0092 14.9628L21.4668 21.1752L18.0873 23.1555L20.0092 14.9628ZM17.0997 27.3642L22.5877 30.636L15.3242 34.9325L17.0997 27.3642ZM15.3273 37.655L24.1138 32.4576L25.333 37.655H15.3273Z" fill="#EF3E16"/>
</svg>
