<svg width="40" height="40" viewBox="0 0 40 40" fill="none" xmlns="http://www.w3.org/2000/svg">
<path d="M22.831 18.2822H20.0325L22.1773 16.1374C22.6353 15.6794 22.6353 14.9369 22.1773 14.4788C21.7195 14.0207 20.9767 14.0207 20.5187 14.4788L16.3719 18.6258C16.0362 18.9612 15.9361 19.4657 16.1177 19.9039C16.299 20.3421 16.7268 20.6281 17.2011 20.6281H19.9995L17.5496 23.0777C17.0915 23.5358 17.0915 24.2783 17.5496 24.7364C17.7788 24.9655 18.0788 25.08 18.3791 25.08C18.6791 25.08 18.9793 24.9655 19.2082 24.7364L23.6604 20.2845C23.9958 19.9491 24.0959 19.4446 23.9146 19.0064C23.7331 18.5678 23.3055 18.2822 22.831 18.2822Z" fill="#EF3E16"/>
<path d="M20.0165 8.87085C13.8804 8.87085 8.8877 13.8632 8.8877 19.9997C8.8877 26.1362 13.8801 31.1285 20.0165 31.1285C26.153 31.1285 31.1454 26.1362 31.1454 19.9997C31.1454 13.8632 26.153 8.87085 20.0165 8.87085ZM20.0165 28.7827C15.1737 28.7827 11.2336 24.8425 11.2336 19.9997C11.2336 15.1566 15.1737 11.2167 20.0165 11.2167C24.8597 11.2167 28.7995 15.1566 28.7995 19.9997C28.7995 24.8425 24.8597 28.7827 20.0165 28.7827Z" fill="#EF3E16"/>
<path d="M36.6008 22.1853C35.6208 20.9152 35.6108 19.2007 36.5757 17.9193L38.8584 14.8877C39.0901 14.58 39.156 14.1784 39.0348 13.8131C38.914 13.4478 38.6213 13.165 38.2518 13.0566L34.7178 12.0196C33.1785 11.568 32.1626 10.1871 32.1904 8.58305L32.2551 4.7885C32.2618 4.40368 32.079 4.03991 31.7662 3.81561C31.4534 3.591 31.0502 3.53454 30.688 3.66393L27.2194 4.90233C25.7085 5.44158 24.0752 4.92125 23.1544 3.60778L20.9764 0.499877C20.757 0.186462 20.3984 0 20.016 0C20.0139 0 20.0114 0 20.0093 0C19.6242 0.00213623 19.265 0.193176 19.0477 0.511168L16.9695 3.55163C16.064 4.87609 14.4368 5.41533 12.9198 4.89379L9.33123 3.65936C8.96715 3.53423 8.56493 3.59557 8.25487 3.82354C7.94451 4.05181 7.76629 4.41741 7.77727 4.80224L7.88317 8.48387C7.92925 10.0873 6.9298 11.4801 5.39599 11.9497L1.76715 13.0606C1.39881 13.1732 1.1095 13.4594 0.992925 13.8263C0.876042 14.1928 0.946538 14.5938 1.18183 14.8983L3.43127 17.8146C4.41119 19.0847 4.42126 20.7992 3.4563 22.0806L1.17328 25.1123C0.94196 25.4199 0.876042 25.8215 0.996892 26.1868C1.11805 26.5521 1.41071 26.835 1.77997 26.9433L5.3142 27.9803C6.85351 28.4319 7.86913 29.8129 7.84197 31.4169L7.77697 35.2114C7.77056 35.5962 7.95305 35.9597 8.26586 36.1843C8.57866 36.4086 8.98149 36.4654 9.34404 36.336L12.8127 35.0976C14.3236 34.558 15.9569 35.0784 16.8776 36.3921L19.0553 39.5003C19.2751 39.8135 19.6336 39.9999 20.016 39.9999H20.0227C20.4076 39.9978 20.7671 39.8067 20.9843 39.4891L23.0626 36.4483C23.9677 35.1238 25.5952 34.5846 27.112 35.1061L30.7008 36.3406C31.0649 36.4657 31.4671 36.4043 31.7772 36.1764C32.0872 35.9481 32.2658 35.5825 32.2545 35.1977L32.1489 31.5161C32.1025 29.9127 33.1022 28.5198 34.636 28.0502L38.2649 26.9393C38.6329 26.8267 38.9222 26.5405 39.0391 26.1737C39.156 25.8068 39.0852 25.4061 38.8502 25.1013L36.6008 22.1853ZM33.9494 25.8074C31.3933 26.5899 29.7273 28.9114 29.8039 31.5835L29.8613 33.5711L27.8749 32.8881C25.3471 32.0187 22.6347 32.9174 21.1259 35.1244L20.0038 36.7663L18.7984 35.046C17.668 33.4329 15.8925 32.5378 14.0291 32.5378C13.3635 32.5378 12.6866 32.6519 12.0238 32.8884L10.1512 33.5571L10.1869 31.4568C10.2327 28.7838 8.53991 26.4822 5.9746 25.7293L4.06665 25.1696L5.33007 23.4915C6.93804 21.3559 6.92156 18.4988 5.28857 16.3818L4.07397 14.8074L6.08233 14.1925C8.63878 13.41 10.3047 11.0885 10.2278 8.41643L10.1708 6.42882L12.1571 7.1118C14.6849 7.98125 17.3973 7.08251 18.9058 4.87548L20.0279 3.23364L21.2334 4.95391C22.7678 7.14324 25.4903 8.01054 28.0079 7.1115L29.8808 6.44286L29.8448 8.54307C29.799 11.2161 31.4918 13.5177 34.0574 14.2703L35.9654 14.8303L34.702 16.5081C33.0937 18.6438 33.1105 21.5011 34.7435 23.6178L35.9581 25.1925L33.9494 25.8074Z" fill="#EF3E16"/>
</svg>
