<svg xmlns="http://www.w3.org/2000/svg" xmlns:xlink="http://www.w3.org/1999/xlink" width="30" height="30" viewBox="0 0 25 21"><defs><path id="4s5aa" d="M1095 2747.49c-.92.42-1.9.7-2.95.83a5.28 5.28 0 0 0 2.26-2.93c-1 .6-2.09 1.05-3.26 1.28a5.04 5.04 0 0 0-3.74-1.67 5.22 5.22 0 0 0-5.13 5.3c0 .42.04.82.13 1.2a14.4 14.4 0 0 1-10.57-5.53 5.43 5.43 0 0 0 1.59 7.08 5 5 0 0 1-2.33-.66v.06a5.26 5.26 0 0 0 4.12 5.2 4.85 4.85 0 0 1-2.32.1 5.16 5.16 0 0 0 4.8 3.67 10.08 10.08 0 0 1-7.6 2.2 14.2 14.2 0 0 0 7.86 2.38c9.44 0 14.6-8.08 14.6-15.08 0-.23 0-.46-.02-.69 1-.75 1.87-1.68 2.56-2.74"/></defs><g><g transform="translate(-1070 -2745)"><use fill="#fff" xlink:href="#4s5aa"/></g></g></svg>
